<svg width="50" height="50" viewBox="0 0 50 50" fill="none" xmlns="http://www.w3.org/2000/svg">
<path fill-rule="evenodd" clip-rule="evenodd" d="M42.3738 15.9569C43.7696 17.0381 44.6258 18.6444 44.7717 20.3923L44.7925 20.8111V37.7048C44.7925 42.059 41.3529 45.6006 37.0425 45.8298H32.8967C30.9154 45.7902 29.3133 44.2486 29.1675 42.3111L29.1467 42.0173V36.0611C29.1467 35.4131 28.6654 34.8736 28.0217 34.7673L27.8342 34.7465H22.2696C21.605 34.7673 21.0633 35.2465 20.98 35.8715L20.9592 36.0611V41.9986C20.9592 42.1215 20.9362 42.2673 20.9175 42.3715L20.8967 42.4152L20.8738 42.559C20.6258 44.3319 19.1675 45.684 17.355 45.8111L17.0842 45.8298H13.355C9.00083 45.8298 5.43833 42.4152 5.20917 38.1215V20.8111C5.22792 19.0381 6.00083 17.3923 7.2925 16.2465L20.2717 5.80897C22.9175 3.70689 26.6258 3.62355 29.3529 5.55897L29.6883 5.80897L42.3738 15.9569ZM41.8737 38.0381L41.8967 37.7048V20.8298C41.8737 19.9361 41.5008 19.1006 40.855 18.4777L40.5842 18.2465L27.8758 8.0798C26.2925 6.80897 24.0425 6.74855 22.3758 7.85064L22.0612 8.0798L9.39458 18.2902C8.6675 18.8298 8.23 19.6423 8.12583 20.4965L8.10292 20.8298V37.7048C8.10292 40.4756 10.2696 42.7465 13.0217 42.9131H17.0842C17.5425 42.9131 17.9383 42.6027 17.9987 42.1652L18.0425 41.7902L18.0633 41.684V36.0611C18.0633 33.8319 19.7717 32.0194 21.9592 31.8506H27.8342C30.0612 31.8506 31.8738 33.5611 32.0425 35.7486V42.0173C32.0425 42.4548 32.355 42.8319 32.7717 42.9131H36.6446C39.4362 42.9131 41.7071 40.7694 41.8737 38.0381Z" fill="white"/>
<path d="M44.7717 20.3923L45.271 20.3675L45.2706 20.3591L45.2699 20.3507L44.7717 20.3923ZM42.3738 15.9569L42.0614 16.3474L42.0676 16.3522L42.3738 15.9569ZM44.7925 20.8111H45.2925V20.7986L45.2919 20.7862L44.7925 20.8111ZM37.0425 45.8298V46.3298H37.0558L37.069 46.3291L37.0425 45.8298ZM32.8967 45.8298L32.8867 46.3298H32.8967V45.8298ZM29.1675 42.3111L28.6687 42.3464L28.6689 42.3486L29.1675 42.3111ZM29.1467 42.0173H28.6467V42.035L28.6479 42.0527L29.1467 42.0173ZM28.0217 34.7673L28.1031 34.274L28.09 34.2718L28.0769 34.2704L28.0217 34.7673ZM27.8342 34.7465L27.8894 34.2495L27.8619 34.2465H27.8342V34.7465ZM22.2696 34.7465V34.2465H22.2617L22.2539 34.2467L22.2696 34.7465ZM20.98 35.8715L20.4843 35.8054L20.483 35.8169L20.98 35.8715ZM20.9592 36.0611L20.4622 36.0064L20.4592 36.0337V36.0611H20.9592ZM20.9175 42.3715L21.3689 42.5864L21.3977 42.526L21.4096 42.46L20.9175 42.3715ZM20.8967 42.4152L20.4452 42.2003L20.4142 42.2653L20.4029 42.3365L20.8967 42.4152ZM20.8738 42.559L20.3799 42.4802L20.3786 42.4897L20.8738 42.559ZM17.355 45.8111L17.3895 46.3099L17.39 46.3098L17.355 45.8111ZM17.0842 45.8298V46.3298H17.1015L17.1187 46.3286L17.0842 45.8298ZM5.20917 38.1215H4.70917V38.1348L4.70988 38.1481L5.20917 38.1215ZM5.20917 20.8111L4.70917 20.8058V20.8111H5.20917ZM7.2925 16.2465L6.97916 15.8568L6.96974 15.8644L6.96069 15.8724L7.2925 16.2465ZM20.2717 5.80897L19.9606 5.41748L19.9583 5.41933L20.2717 5.80897ZM29.3529 5.55897L29.6518 5.15797L29.6423 5.15122L29.3529 5.55897ZM29.6883 5.80897L30.0007 5.41853L29.994 5.41319L29.9871 5.40808L29.6883 5.80897ZM41.8967 37.7048L42.3955 37.7391L42.3967 37.722V37.7048H41.8967ZM41.8737 38.0381L41.3749 38.0038L41.3747 38.0077L41.8737 38.0381ZM41.8967 20.8298H42.3968L42.3965 20.817L41.8967 20.8298ZM40.855 18.4777L41.2021 18.1178L41.1912 18.1073L41.1797 18.0975L40.855 18.4777ZM40.5842 18.2465L40.9088 17.8662L40.9028 17.861L40.8965 17.856L40.5842 18.2465ZM27.8758 8.0798L27.5629 8.46974L27.5635 8.47024L27.8758 8.0798ZM22.3758 7.85064L22.1 7.43357L22.0906 7.43982L22.0814 7.4465L22.3758 7.85064ZM22.0612 8.0798L21.7668 7.67567L21.757 7.68286L21.7475 7.69053L22.0612 8.0798ZM9.39458 18.2902L9.69255 18.6917L9.70059 18.6858L9.70837 18.6795L9.39458 18.2902ZM8.12583 20.4965L7.62951 20.4359L7.62792 20.449L7.62701 20.4622L8.12583 20.4965ZM8.10292 20.8298L7.60409 20.7955L7.60292 20.8126V20.8298H8.10292ZM13.0217 42.9131L12.9914 43.4122L13.0065 43.4131H13.0217V42.9131ZM17.9987 42.1652L18.4942 42.2336L18.4954 42.2232L17.9987 42.1652ZM18.0425 41.7902L17.5518 41.694L17.5481 41.713L17.5459 41.7323L18.0425 41.7902ZM18.0633 41.684L18.554 41.7802L18.5633 41.7325V41.684H18.0633ZM21.9592 31.8506V31.3506H21.9399L21.9207 31.3521L21.9592 31.8506ZM32.0425 35.7486H32.5425V35.7293L32.541 35.7101L32.0425 35.7486ZM32.7717 42.9131L32.676 43.4039L32.7234 43.4131H32.7717V42.9131ZM45.2699 20.3507C45.1127 18.4657 44.1885 16.7302 42.6799 15.5616L42.0676 16.3522C43.3507 17.3461 44.139 18.8231 44.2734 20.4339L45.2699 20.3507ZM45.2919 20.7862L45.271 20.3675L44.2723 20.4172L44.2931 20.8359L45.2919 20.7862ZM45.2925 37.7048V20.8111H44.2925V37.7048H45.2925ZM37.069 46.3291C41.6397 46.0861 45.2925 42.33 45.2925 37.7048H44.2925C44.2925 41.7879 41.0662 45.1152 37.016 45.3305L37.069 46.3291ZM32.8967 46.3298H37.0425V45.3298H32.8967V46.3298ZM28.6689 42.3486C28.834 44.5417 30.6464 46.2849 32.8867 46.3297L32.9067 45.3299C31.1845 45.2955 29.7927 43.9554 29.6661 42.2735L28.6689 42.3486ZM28.6479 42.0527L28.6688 42.3464L29.6662 42.2757L29.6454 41.9819L28.6479 42.0527ZM28.6467 36.0611V42.0173H29.6467V36.0611H28.6467ZM27.9402 35.2606C28.3564 35.3293 28.6467 35.6716 28.6467 36.0611H29.6467C29.6467 35.1547 28.9745 34.4178 28.1031 34.274L27.9402 35.2606ZM27.7789 35.2434L27.9664 35.2642L28.0769 34.2704L27.8894 34.2495L27.7789 35.2434ZM22.2696 35.2465H27.8342V34.2465H22.2696V35.2465ZM21.4756 35.9376C21.5248 35.5683 21.8516 35.2598 22.2853 35.2462L22.2539 34.2467C21.3584 34.2748 20.6018 34.9247 20.4844 35.8054L21.4756 35.9376ZM21.4562 36.1157L21.477 35.9261L20.483 35.8169L20.4622 36.0064L21.4562 36.1157ZM21.4592 41.9986V36.0611H20.4592V41.9986H21.4592ZM21.4096 42.46C21.4287 42.3541 21.4592 42.1699 21.4592 41.9986H20.4592C20.4592 42.073 20.4438 42.1806 20.4254 42.2829L21.4096 42.46ZM21.3481 42.6302L21.3689 42.5864L20.4661 42.1565L20.4452 42.2003L21.3481 42.6302ZM21.3675 42.6377L21.3904 42.4939L20.4029 42.3365L20.38 42.4803L21.3675 42.6377ZM17.39 46.3098C19.4343 46.1665 21.0878 44.6388 21.3689 42.6282L20.3786 42.4897C20.1639 44.025 18.9007 45.2015 17.32 45.3123L17.39 46.3098ZM17.1187 46.3286L17.3895 46.3099L17.3205 45.3123L17.0496 45.331L17.1187 46.3286ZM13.355 46.3298H17.0842V45.3298H13.355V46.3298ZM4.70988 38.1481C4.95316 42.7063 8.73411 46.3298 13.355 46.3298V45.3298C9.26756 45.3298 5.92351 42.1241 5.70846 38.0948L4.70988 38.1481ZM4.70917 20.8111V38.1215H5.70917V20.8111H4.70917ZM6.96069 15.8724C5.56519 17.1104 4.72946 18.8894 4.7092 20.8058L5.70914 20.8163C5.72637 19.1869 6.43648 17.6742 7.62431 16.6205L6.96069 15.8724ZM19.9583 5.41933L6.97916 15.8568L7.60584 16.6361L20.585 6.19861L19.9583 5.41933ZM29.6423 5.15122C26.7345 3.08752 22.7814 3.17645 19.9606 5.41749L20.5827 6.20046C23.0536 4.23732 26.5172 4.15959 29.0635 5.96672L29.6423 5.15122ZM29.9871 5.40808L29.6517 5.15808L29.0541 5.95987L29.3895 6.20987L29.9871 5.40808ZM42.6861 15.5664L30.0007 5.41853L29.376 6.19941L42.0614 16.3473L42.6861 15.5664ZM41.3978 37.6705L41.3749 38.0038L42.3726 38.0724L42.3955 37.7391L41.3978 37.6705ZM41.3967 20.8298V37.7048H42.3967V20.8298H41.3967ZM40.5079 18.8376C41.0608 19.3709 41.3773 20.0824 41.3968 20.8426L42.3965 20.817C42.3702 19.7897 41.9408 18.8303 41.2021 18.1178L40.5079 18.8376ZM40.2595 18.6267L40.5303 18.858L41.1797 18.0975L40.9088 17.8662L40.2595 18.6267ZM27.5635 8.47024L40.2718 18.6369L40.8965 17.856L28.1882 7.68937L27.5635 8.47024ZM22.6516 8.2677C24.143 7.28151 26.1546 7.33942 27.5629 8.46974L28.1888 7.68987C26.4304 6.27853 23.942 6.21559 22.1 7.43357L22.6516 8.2677ZM22.3557 8.48394L22.6702 8.25477L22.0814 7.4465L21.7668 7.67567L22.3557 8.48394ZM9.70837 18.6795L22.375 8.46908L21.7475 7.69053L9.08079 17.9009L9.70837 18.6795ZM8.62216 20.557C8.71084 19.8298 9.08265 19.1444 9.69255 18.6917L9.09661 17.8887C8.25235 18.5153 7.74916 19.4548 7.62951 20.4359L8.62216 20.557ZM8.60174 20.8641L8.62466 20.5308L7.62701 20.4622L7.60409 20.7955L8.60174 20.8641ZM8.60292 37.7048V20.8298H7.60292V37.7048H8.60292ZM13.0519 42.4141C10.5608 42.2632 8.60292 40.2083 8.60292 37.7048H7.60292C7.60292 40.743 9.97838 43.2298 12.9914 43.4122L13.0519 42.4141ZM17.0842 42.4131H13.0217V43.4131H17.0842V42.4131ZM17.5035 42.0968C17.4816 42.2549 17.3266 42.4131 17.0842 42.4131V43.4131C17.7584 43.4131 18.395 42.9505 18.494 42.2336L17.5035 42.0968ZM17.5459 41.7323L17.5021 42.1073L18.4954 42.2232L18.5391 41.8482L17.5459 41.7323ZM17.5727 41.5878L17.5518 41.694L18.5332 41.8864L18.554 41.7802L17.5727 41.5878ZM17.5633 36.0611V41.684H18.5633V36.0611H17.5633ZM21.9207 31.3521C19.475 31.5408 17.5633 33.5684 17.5633 36.0611H18.5633C18.5633 34.0954 20.0683 32.498 21.9976 32.3492L21.9207 31.3521ZM27.8342 31.3506H21.9592V32.3506H27.8342V31.3506ZM32.541 35.7101C32.3524 33.2649 30.3252 31.3506 27.8342 31.3506V32.3506C29.7973 32.3506 31.3951 33.8572 31.544 35.787L32.541 35.7101ZM32.5425 42.0173V35.7486H31.5425V42.0173H32.5425ZM32.8674 42.4224C32.6883 42.3875 32.5425 42.2184 32.5425 42.0173H31.5425C31.5425 42.6912 32.0217 43.2763 32.676 43.4039L32.8674 42.4224ZM36.6446 42.4131H32.7717V43.4131H36.6446V42.4131ZM41.3747 38.0077C41.2243 40.4727 39.1744 42.4131 36.6446 42.4131V43.4131C39.6981 43.4131 42.1899 41.0661 42.3728 38.0686L41.3747 38.0077Z" fill="white"/>
</svg>
