<svg width="36" height="35" viewBox="0 0 36 35" fill="none" xmlns="http://www.w3.org/2000/svg">
<path opacity="0.15" d="M6.72668 14.6822L18.3586 4.81995L29.9906 14.6822L29.9906 28.7712H22.7206V23.1356C22.7206 22.0146 22.2611 20.9396 21.443 20.1469C20.625 19.3542 19.5155 18.9089 18.3586 18.9089C17.2018 18.9089 16.0923 19.3542 15.2743 20.1469C14.4562 20.9396 13.9967 22.0146 13.9967 23.1356V28.7712H6.72669L6.72668 14.6822Z" fill="white"/>
<path d="M6.72668 14.6822L18.3586 4.81995L29.9906 14.6822L29.9906 28.7712H22.7206V23.1356C22.7206 22.0146 22.2611 20.9396 21.443 20.1469C20.625 19.3542 19.5155 18.9089 18.3586 18.9089C17.2018 18.9089 16.0923 19.3542 15.2743 20.1469C14.4562 20.9396 13.9967 22.0146 13.9967 23.1356V28.7712H6.72669L6.72668 14.6822Z" stroke="white" stroke-width="1.5" stroke-linecap="round" stroke-linejoin="round"/>
</svg>
