<svg width="30" height="30" viewBox="0 0 30 30" fill="none" xmlns="http://www.w3.org/2000/svg">
<path d="M22.1339 17.1339L25.444 20.444C25.8892 20.8892 25.8892 21.6108 25.444 22.056C23.0375 24.4625 19.2277 24.7332 16.505 22.6912L14.5357 21.2143C12.3563 19.5797 10.4203 17.6437 8.78571 15.4643L7.30876 13.495C5.26676 10.7723 5.53752 6.96248 7.94404 4.55596C8.38916 4.11084 9.11084 4.11084 9.55596 4.55596L12.8661 7.86612C13.3543 8.35427 13.3543 9.14573 12.8661 9.63388L11.5897 10.9103C11.3868 11.1132 11.3365 11.4231 11.4648 11.6797C12.9482 14.6463 15.3537 17.0518 18.3203 18.5352C18.5769 18.6635 18.8868 18.6132 19.0897 18.4103L20.3661 17.1339C20.8543 16.6457 21.6457 16.6457 22.1339 17.1339Z" stroke="#19C8FF" stroke-width="2.5"/>
</svg>
