<svg width="30" height="30" viewBox="0 0 30 30" fill="none" xmlns="http://www.w3.org/2000/svg">
<path fill-rule="evenodd" clip-rule="evenodd" d="M15.0054 2.5C11.3378 2.5 8.36472 5.4858 8.36472 9.16897C8.36472 12.8521 11.3378 15.8379 15.0054 15.8379C18.6729 15.8379 21.646 12.8521 21.646 9.16897C21.646 5.4858 18.6729 2.5 15.0054 2.5ZM15.0054 4.30959C17.6777 4.30959 19.8441 6.48521 19.8441 9.16897C19.8441 11.8527 17.6777 14.0283 15.0054 14.0283C12.333 14.0283 10.1666 11.8527 10.1666 9.16897C10.1666 6.48521 12.333 4.30959 15.0054 4.30959ZM12.2876 18.5261C11.3154 18.5936 10.3328 18.7324 9.3635 18.9401C7.49272 19.3254 5.99607 20.0954 5.35905 21.3748C5.11878 21.8752 4.99799 22.411 5.00003 22.9534C4.9993 23.4919 5.11912 24.0283 5.35077 24.5191C5.96243 25.7838 7.28475 26.4996 9.0703 26.8963L9.39016 26.9631C10.3331 27.1758 11.3161 27.3191 12.3056 27.3863C12.3899 27.411 12.5907 27.434 12.81 27.4452L12.9903 27.4519C13.083 27.4541 13.1882 27.4546 13.345 27.4546C14.7673 27.5329 16.2418 27.5101 17.7094 27.3851C18.4915 27.3316 19.2789 27.2293 20.0597 27.0795L20.6438 26.9582C22.572 26.5778 24.0157 25.8545 24.6482 24.5205C25.1172 23.5301 25.1172 22.3809 24.6485 21.3909C24.0175 20.0603 22.5921 19.343 20.6292 18.9386C19.8591 18.7742 19.0765 18.6526 18.2883 18.5749L17.7121 18.5261C15.9074 18.3669 14.0923 18.3669 12.2876 18.5261ZM17.5545 20.3288L17.5703 20.33C18.4749 20.3937 19.3739 20.5206 20.2608 20.71C21.7189 21.0104 22.7083 21.5083 23.0214 22.1685C23.2571 22.6663 23.2571 23.2447 23.0212 23.743C22.7287 24.3598 21.84 24.8364 20.5556 25.1276L20.2744 25.1872C19.37 25.389 18.4739 25.5191 17.5719 25.5809C16.1724 25.6999 14.7812 25.7214 13.3935 25.6463L12.9015 25.6379C12.7649 25.6309 12.6498 25.6178 12.5431 25.5964C11.6984 25.5326 10.9383 25.4317 10.2003 25.2854L9.75969 25.1921C8.29714 24.9055 7.29894 24.4054 6.9753 23.7362C6.86206 23.4962 6.80157 23.2254 6.80193 22.9512C6.80091 22.6785 6.86061 22.4138 6.97648 22.1723C7.29116 21.5405 8.349 20.9963 9.73257 20.7113C10.6259 20.5199 11.5245 20.393 12.4287 20.3301C14.145 20.1788 15.8547 20.1788 17.5545 20.3288Z" fill="white"/>
<path d="M9.3635 18.9401L9.46438 19.4298L9.46827 19.429L9.3635 18.9401ZM12.2876 18.5261L12.3222 19.025L12.3315 19.0242L12.2876 18.5261ZM5.35905 21.3748L4.91141 21.152L4.90832 21.1584L5.35905 21.3748ZM5.00003 22.9534L5.50003 22.9541L5.50002 22.9515L5.00003 22.9534ZM5.35077 24.5191L4.89859 24.7325L4.90065 24.7368L5.35077 24.5191ZM9.0703 26.8963L8.96184 27.3845L8.96816 27.3858L9.0703 26.8963ZM9.39016 26.9631L9.50022 26.4753L9.4923 26.4736L9.39016 26.9631ZM12.3056 27.3863L12.4462 26.9065L12.3939 26.8911L12.3395 26.8875L12.3056 27.3863ZM12.81 27.4452L12.7844 27.9446L12.7912 27.9448L12.81 27.4452ZM12.9903 27.4519L12.9715 27.9516L12.9787 27.9518L12.9903 27.4519ZM13.345 27.4546L13.3725 26.9554L13.3587 26.9546H13.345V27.4546ZM17.7094 27.3851L17.6753 26.8862L17.667 26.8869L17.7094 27.3851ZM20.0597 27.0795L20.1539 27.5706L20.1613 27.569L20.0597 27.0795ZM20.6438 26.9582L20.5471 26.4676L20.5422 26.4686L20.6438 26.9582ZM24.6482 24.5205L25.1 24.7347L25.1001 24.7345L24.6482 24.5205ZM24.6485 21.3909L25.1004 21.177L25.1002 21.1767L24.6485 21.3909ZM20.6292 18.9386L20.5248 19.4276L20.5283 19.4283L20.6292 18.9386ZM18.2883 18.5749L18.3374 18.0772L18.3305 18.0766L18.2883 18.5749ZM17.7121 18.5261L17.6682 19.0242L17.67 19.0243L17.7121 18.5261ZM17.5703 20.33L17.5308 20.8285L17.5352 20.8288L17.5703 20.33ZM17.5545 20.3288L17.5105 20.8268L17.5149 20.8272L17.5545 20.3288ZM20.2608 20.71L20.1565 21.199L20.16 21.1997L20.2608 20.71ZM23.0214 22.1685L23.4733 21.9545L23.4732 21.9543L23.0214 22.1685ZM23.0212 23.743L23.4729 23.9572L23.4731 23.9569L23.0212 23.743ZM20.5556 25.1276L20.6592 25.6168L20.6662 25.6153L20.5556 25.1276ZM20.2744 25.1872L20.1708 24.698L20.1655 24.6992L20.2744 25.1872ZM17.5719 25.5809L17.5378 25.082L17.5296 25.0827L17.5719 25.5809ZM13.3935 25.6463L13.4205 25.1471L13.4113 25.1466L13.402 25.1464L13.3935 25.6463ZM12.9015 25.6379L12.876 26.1373L12.8844 26.1377L12.8929 26.1378L12.9015 25.6379ZM12.5431 25.5964L12.6416 25.1061L12.6114 25.1001L12.5807 25.0978L12.5431 25.5964ZM10.2003 25.2854L10.0968 25.7746L10.1031 25.7759L10.2003 25.2854ZM9.75969 25.1921L9.86327 24.7029L9.85586 24.7015L9.75969 25.1921ZM6.9753 23.7362L6.52309 23.9496L6.52518 23.9539L6.9753 23.7362ZM6.80193 22.9512L7.30193 22.9518L7.30192 22.9493L6.80193 22.9512ZM6.97648 22.1723L6.52887 21.9494L6.52571 21.956L6.97648 22.1723ZM9.73257 20.7113L9.83346 21.201L9.83733 21.2002L9.73257 20.7113ZM12.4287 20.3301L12.4634 20.8289L12.4726 20.8281L12.4287 20.3301ZM8.86472 9.16897C8.86472 5.75993 11.616 3 15.0054 3V2C11.0597 2 7.86472 5.21166 7.86472 9.16897H8.86472ZM15.0054 15.3379C11.616 15.3379 8.86472 12.578 8.86472 9.16897H7.86472C7.86472 13.1263 11.0597 16.3379 15.0054 16.3379V15.3379ZM21.146 9.16897C21.146 12.578 18.3948 15.3379 15.0054 15.3379V16.3379C18.951 16.3379 22.146 13.1263 22.146 9.16897H21.146ZM15.0054 3C18.3948 3 21.146 5.75993 21.146 9.16897H22.146C22.146 5.21166 18.951 2 15.0054 2V3ZM20.3441 9.16897C20.3441 6.21107 17.9559 3.80959 15.0054 3.80959V4.80959C17.3996 4.80959 19.3441 6.75934 19.3441 9.16897H20.3441ZM15.0054 14.5283C17.9559 14.5283 20.3441 12.1269 20.3441 9.16897H19.3441C19.3441 11.5786 17.3996 13.5283 15.0054 13.5283V14.5283ZM9.66662 9.16897C9.66662 12.1269 12.0549 14.5283 15.0054 14.5283V13.5283C12.6111 13.5283 10.6666 11.5786 10.6666 9.16897H9.66662ZM15.0054 3.80959C12.0549 3.80959 9.66662 6.21107 9.66662 9.16897H10.6666C10.6666 6.75934 12.6111 4.80959 15.0054 4.80959V3.80959ZM9.46827 19.429C10.4146 19.2262 11.3739 19.0907 12.3222 19.0249L12.2529 18.0273C11.257 18.0964 10.2509 18.2386 9.25872 18.4512L9.46827 19.429ZM5.80664 21.5977C6.33846 20.5295 7.63866 19.8059 9.46437 19.4298L9.26262 18.4504C7.34678 18.845 5.65367 19.6612 4.91146 21.152L5.80664 21.5977ZM5.50002 22.9515C5.49827 22.4855 5.60186 22.0243 5.80978 21.5913L4.90832 21.1584C4.63571 21.7262 4.4977 22.3365 4.50003 22.9553L5.50002 22.9515ZM5.80293 24.3057C5.60277 23.8816 5.4994 23.4183 5.50002 22.9541L4.50003 22.9527C4.49921 23.5655 4.63548 24.1751 4.89861 24.7325L5.80293 24.3057ZM9.17876 26.4082C7.44584 26.0232 6.31236 25.359 5.8009 24.3014L4.90065 24.7368C5.61249 26.2087 7.12367 26.976 8.96185 27.3844L9.17876 26.4082ZM9.4923 26.4736L9.17245 26.4069L8.96816 27.3858L9.28801 27.4525L9.4923 26.4736ZM12.3395 26.8875C11.3752 26.8219 10.4177 26.6824 9.5002 26.4753L9.28011 27.4508C10.2485 27.6693 11.2569 27.8162 12.2717 27.8852L12.3395 26.8875ZM12.8355 26.9458C12.7347 26.9407 12.6405 26.9329 12.5648 26.9241C12.4796 26.9142 12.4446 26.906 12.4462 26.9065L12.165 27.8661C12.313 27.9095 12.5692 27.9335 12.7845 27.9445L12.8355 26.9458ZM13.009 26.9523L12.8287 26.9455L12.7912 27.9448L12.9715 27.9516L13.009 26.9523ZM13.345 26.9546C13.1884 26.9546 13.0883 26.9541 13.0019 26.9521L12.9787 27.9518C13.0777 27.9541 13.188 27.9546 13.345 27.9546V26.9546ZM17.667 26.8869C16.2221 27.0099 14.7709 27.0323 13.3725 26.9554L13.3175 27.9539C14.7637 28.0334 16.2615 28.0102 17.7518 27.8833L17.667 26.8869ZM19.9654 26.5885C19.2043 26.7345 18.437 26.8342 17.6753 26.8863L17.7435 27.884C18.546 27.8291 19.3535 27.7242 20.1539 27.5705L19.9654 26.5885ZM20.5422 26.4686L19.958 26.5899L20.1613 27.569L20.7455 27.4478L20.5422 26.4686ZM24.1965 24.3063C23.6692 25.4182 22.4322 26.0958 20.5471 26.4677L20.7406 27.4487C22.7117 27.0599 24.3622 26.2908 25.1 24.7347L24.1965 24.3063ZM24.1966 21.6049C24.6011 22.4594 24.6012 23.4516 24.1963 24.3066L25.1001 24.7345C25.6332 23.6087 25.6332 22.3024 25.1004 21.177L24.1966 21.6049ZM20.5283 19.4283C22.4522 19.8247 23.6709 20.4963 24.1967 21.6051L25.1002 21.1767C24.3642 19.6243 22.7321 18.8613 20.7301 18.4489L20.5283 19.4283ZM18.2393 19.0724C19.0089 19.1483 19.773 19.2671 20.5248 19.4276L20.7336 18.4496C19.9451 18.2813 19.1441 18.1568 18.3374 18.0773L18.2393 19.0724ZM17.67 19.0243L18.2462 19.0731L18.3305 18.0766L17.7543 18.0279L17.67 19.0243ZM12.3315 19.0242C14.107 18.8675 15.8927 18.8675 17.6682 19.0242L17.7561 18.028C15.9221 17.8663 14.0776 17.8663 12.2436 18.028L12.3315 19.0242ZM17.6098 19.8316L17.594 19.8303L17.5149 20.8272L17.5308 20.8284L17.6098 19.8316ZM20.3652 20.221C19.4554 20.0268 18.5333 19.8965 17.6054 19.8312L17.5352 20.8288C18.4165 20.8908 19.2923 21.0145 20.1565 21.199L20.3652 20.221ZM23.4732 21.9543C23.2513 21.4863 22.8192 21.131 22.3018 20.861C21.7782 20.5879 21.118 20.3761 20.3617 20.2203L20.16 21.1997C20.8617 21.3443 21.4252 21.5316 21.8392 21.7476C22.2593 21.9668 22.4785 22.1905 22.5696 22.3827L23.4732 21.9543ZM23.4731 23.9569C23.7731 23.3233 23.7731 22.5878 23.4733 21.9545L22.5695 22.3825C22.741 22.7447 22.7411 23.1661 22.5693 23.529L23.4731 23.9569ZM20.6662 25.6153C21.3376 25.463 21.9294 25.2574 22.403 24.9946C22.8717 24.7345 23.2651 24.3956 23.4729 23.9572L22.5694 23.5288C22.4847 23.7072 22.2876 23.915 21.9177 24.1202C21.5527 24.3228 21.058 24.501 20.445 24.64L20.6662 25.6153ZM20.378 25.6764L20.6592 25.6168L20.452 24.6385L20.1708 24.698L20.378 25.6764ZM17.6061 26.0797C18.5336 26.0161 19.4546 25.8824 20.3833 25.6752L20.1655 24.6992C19.2853 24.8956 18.4142 25.022 17.5378 25.0821L17.6061 26.0797ZM13.3665 26.1456C14.7774 26.2219 16.1919 26.2001 17.6143 26.0791L17.5296 25.0827C16.153 25.1998 14.7849 25.2209 13.4205 25.1471L13.3665 26.1456ZM12.8929 26.1378L13.3849 26.1463L13.402 25.1464L12.91 25.138L12.8929 26.1378ZM12.4446 26.0866C12.5812 26.114 12.7216 26.1294 12.876 26.1373L12.927 25.1386C12.8081 25.1325 12.7183 25.1216 12.6416 25.1061L12.4446 26.0866ZM10.1031 25.7759C10.8631 25.9265 11.6432 26.0299 12.5055 26.0949L12.5807 25.0978C11.7536 25.0353 11.0136 24.9369 10.2976 24.795L10.1031 25.7759ZM9.65613 25.6813L10.0968 25.7746L10.3039 24.7963L9.86326 24.703L9.65613 25.6813ZM6.52518 23.9539C6.75248 24.4239 7.18783 24.7813 7.71074 25.0518C8.23922 25.325 8.90364 25.5339 9.66353 25.6828L9.85586 24.7015C9.15319 24.5638 8.58724 24.3792 8.17007 24.1635C7.74733 23.9449 7.52176 23.7177 7.42542 23.5185L6.52518 23.9539ZM6.30193 22.9505C6.30147 23.2975 6.37777 23.6415 6.52311 23.9496L7.42749 23.5229C7.34635 23.3509 7.30166 23.1533 7.30193 22.9518L6.30193 22.9505ZM6.52571 21.956C6.37684 22.2662 6.30064 22.6056 6.30193 22.953L7.30192 22.9493C7.30119 22.7514 7.34437 22.5614 7.42725 22.3887L6.52571 21.956ZM9.63169 20.2216C8.90629 20.371 8.24908 20.5916 7.72101 20.8692C7.20541 21.1403 6.75442 21.4967 6.52892 21.9494L7.42405 22.3952C7.51323 22.2162 7.74849 21.9845 8.18637 21.7543C8.61178 21.5307 9.17528 21.3366 9.83346 21.201L9.63169 20.2216ZM12.394 19.8313C11.4662 19.8958 10.5441 20.026 9.62781 20.2224L9.83733 21.2002C10.7077 21.0137 11.5829 20.8901 12.4634 20.8289L12.394 19.8313ZM17.5984 19.8307C15.8692 19.6781 14.1302 19.6782 12.3848 19.832L12.4726 20.8281C14.1599 20.6794 15.8401 20.6795 17.5105 20.8268L17.5984 19.8307Z" fill="white"/>
</svg>
