<svg width="36" height="35" viewBox="0 0 36 35" fill="none" xmlns="http://www.w3.org/2000/svg">
<g opacity="0.15">
<path d="M17.7146 30.1799C17.6902 30.18 17.6658 30.1801 17.6414 30.1801C17.6169 30.1801 17.5925 30.18 17.5681 30.1799C17.5928 30.1565 17.6172 30.1328 17.6414 30.109C17.6655 30.1328 17.6899 30.1565 17.7146 30.1799Z" fill="white"/>
<path fill-rule="evenodd" clip-rule="evenodd" d="M26.356 26.9595C26.3622 26.8597 26.3653 26.7591 26.3653 26.6579C26.3653 23.9345 24.0869 21.7267 21.2763 21.7267H14.0064C11.1958 21.7267 8.9174 23.9345 8.9174 26.6579C8.9174 26.7591 8.92055 26.8597 8.92676 26.9595C6.24417 24.6374 4.55542 21.2598 4.55542 17.5C4.55542 10.497 10.4142 4.81995 17.6414 4.81995C24.8685 4.81995 30.7273 10.497 30.7273 17.5C30.7273 21.2598 29.0386 24.6374 26.356 26.9595ZM17.6414 17.5C20.0504 17.5 22.0033 15.6077 22.0033 13.2733C22.0033 10.939 20.0504 9.04664 17.6414 9.04664C15.2323 9.04664 13.2794 10.939 13.2794 13.2733C13.2794 15.6077 15.2323 17.5 17.6414 17.5Z" fill="white"/>
</g>
<path d="M14.3005 22.4767H20.9822V20.9767H14.3005V22.4767ZM20.9822 22.4767C23.5635 22.4767 25.6153 24.4984 25.6153 26.9428H27.1153C27.1153 23.6257 24.347 20.9767 20.9822 20.9767V22.4767ZM14.3005 20.9767C10.9357 20.9767 8.1674 23.6257 8.1674 26.9428H9.6674C9.6674 24.4984 11.7193 22.4767 14.3005 22.4767V20.9767ZM21.2533 13.2733C21.2533 15.1714 19.6587 16.75 17.6414 16.75V18.25C20.4422 18.25 22.7533 16.044 22.7533 13.2733H21.2533ZM17.6414 16.75C15.6241 16.75 14.0294 15.1714 14.0294 13.2733H12.5294C12.5294 16.044 14.8405 18.25 17.6414 18.25V16.75ZM14.0294 13.2733C14.0294 11.3753 15.6241 9.79664 17.6414 9.79664V8.29664C14.8405 8.29664 12.5294 10.5027 12.5294 13.2733H14.0294ZM17.6414 9.79664C19.6587 9.79664 21.2533 11.3753 21.2533 13.2733H22.7533C22.7533 10.5027 20.4422 8.29664 17.6414 8.29664V9.79664ZM29.9773 17.5C29.9773 24.0667 24.4768 29.4301 17.6414 29.4301V30.9301C25.2603 30.9301 31.4773 24.9394 31.4773 17.5H29.9773ZM17.6414 29.4301C10.806 29.4301 5.30542 24.0667 5.30542 17.5H3.80542C3.80542 24.9394 10.0224 30.9301 17.6414 30.9301V29.4301ZM5.30542 17.5C5.30542 10.9333 10.806 5.56995 17.6414 5.56995V4.06995C10.0224 4.06995 3.80542 10.0607 3.80542 17.5H5.30542ZM17.6414 5.56995C24.4768 5.56995 29.9773 10.9333 29.9773 17.5H31.4773C31.4773 10.0607 25.2603 4.06995 17.6414 4.06995V5.56995Z" fill="white"/>
</svg>
